# xmcd
#
# Track frame offsets:
#	150
#	15867
#	30280
#	43475
#	60799
#	76662
#	87541
#	103106
#	117369
#	130415
#	147680
#	163392
#
# Disc length: 2323 seconds
#
# Revision: 1
# Processed by: cddbd v1.5.2PL0 Copyright (c) Steve Scherf et al.
# Submitted via: audiograbber 1.83.01
#
DISCID=9c09110c
DTITLE=Waylon Jennings - Chartbuster Karaoke #1
DYEAR=2004
DGENRE=Country
TTITLE0=Good Hearted Woman w Vocal
TTITLE1=Ramblin' Man w Vocal
TTITLE2=Are You Sure Hank Done It This Way w Vocal
TTITLE3=Luckenback, Texas w Vocal
TTITLE4=Are You Ready for the Country w Vocal
TTITLE5=The Wurlitzer Prize w Vocal
TTITLE6=Good Hearted Woman
TTITLE7=Ramblin' Man
TTITLE8=Are You Sure Hank Done It This Way
TTITLE9=Luckenback, Texas
TTITLE10=Are You Ready for the Country
TTITLE11=The Wurlitzer Prize
EXTD=
EXTT0=
EXTT1=
EXTT2=
EXTT3=
EXTT4=
EXTT5=
EXTT6=
EXTT7=
EXTT8=
EXTT9=
EXTT10=
EXTT11=
PLAYORDER=
